<svg width="20" height="23" viewBox="0 0 20 23" fill="none" xmlns="http://www.w3.org/2000/svg">
<path d="M18.3333 0H1.66667C1.22464 0 0.800722 0.173086 0.488161 0.481182C0.175601 0.789277 6.28835e-06 1.20714 6.28835e-06 1.64286V12.3214C-0.00194188 13.9597 0.44881 15.5675 1.30387 16.9723C2.15893 18.3771 3.386 19.5258 4.85334 20.295L10 23L15.1467 20.295C16.614 19.5258 17.8411 18.3771 18.6961 16.9723C19.5512 15.5675 20.0019 13.9597 20 12.3214V1.64286C20 1.20714 19.8244 0.789277 19.5118 0.481182C19.1993 0.173086 18.7754 0 18.3333 0ZM15.8333 13.1429H4.16667V11.5H15.8333V13.1429ZM15.8333 8.21429H4.16667V6.57143H15.8333V8.21429Z" fill="black"/>
</svg>
